<svg width="90" height="24" viewBox="0 0 90 24" fill="none" xmlns="http://www.w3.org/2000/svg">
<path d="M7.52808 12.6389L16.99 22.9641H12.4317L4.97268 14.8144L3.79857 15.7813V22.9641H0V0H3.79857V9.80722C3.79857 10.3252 3.69498 10.8777 3.48778 11.3612L2.62447 13.295L3.07339 13.5022L3.79857 11.9137C4.00577 11.3957 4.38562 10.9123 4.80001 10.5324L10.4979 5.73239H15.7123L7.52808 12.6389Z" fill="white"/>
<path d="M36.0417 14.3655C36.0417 14.849 36.0071 15.3324 35.9035 15.7813H19.5006C20.2258 18.2677 22.7467 20.0979 25.751 20.0979C27.6848 20.0979 29.3769 19.3382 30.5855 18.1641H35.0747C33.4517 21.272 29.8949 23.4476 25.751 23.4476C20.0877 23.4476 15.4948 19.3727 15.4948 14.3655C15.4948 9.32377 20.0877 5.24894 25.751 5.24894C30.8963 5.24894 35.1438 8.56406 35.9035 12.9151C36.0071 13.3986 36.0417 13.8475 36.0417 14.3655ZM20.7783 12.9151H32.0014C31.3107 10.4288 28.7553 8.59859 25.751 8.59859C22.9193 8.59859 20.5366 10.2216 19.6387 12.4662C19.5697 12.7425 19.4315 12.9842 19.2934 13.1914L18.6028 14.1928L19.0517 14.5036L19.7078 13.4677C19.9495 13.1223 20.3294 12.9151 20.7783 12.9151Z" fill="white"/>
<path d="M43.2638 20.0979H45.6465V23.4476H43.2638C40.0868 23.4476 37.5314 21.3065 37.5314 18.6475V0H41.33V18.6475C41.33 19.4418 42.1933 20.0979 43.2638 20.0979Z" fill="white"/>
<path d="M60.7078 5.73239H64.4373L55.8733 22.9641H51.7984L43.2344 5.73239H46.9639L53.1797 18.2331C53.4215 18.7511 53.5596 19.3382 53.5596 19.9252V20.5814H54.0776V19.9252C54.0776 19.3382 54.2157 18.7511 54.492 18.2331L60.7078 5.73239Z" fill="white"/>
<path d="M69.2214 22.9641H65.4229V5.73239H69.2214V22.9641ZM69.2214 4.76548H65.4229V0.966909H69.2214V4.76548Z" fill="white"/>
<path d="M81.8849 5.24894C86.3741 5.28347 90 8.94391 90 13.4331V22.9641H86.1669V13.3986C86.1669 10.7396 84.2331 8.59859 81.8503 8.59859C78.2935 8.59859 75.3928 11.1885 75.3928 14.3655V22.9641H71.5942V5.73239H75.3928V5.97412C75.3928 6.52664 75.2892 7.04463 75.082 7.52808L74.2187 9.4619L74.6676 9.6691L75.3582 8.14966C75.7381 7.28635 76.4287 6.5957 77.2921 6.21585C78.6734 5.59426 80.2273 5.24894 81.8849 5.24894Z" fill="white"/>
</svg>
